<mxfile host="app.diagrams.net" modified="2020-09-24T11:32:38.528Z" agent="5.0 (Macintosh)" etag="ovGomJ-p9CfEgtTZFdPN" version="13.7.5" type="github">
  <diagram id="Iwl_UHsNRRA5oYcL_RLJ" name="Page-1">
    <mxGraphModel dx="786" dy="456" grid="1" gridSize="10" guides="1" tooltips="1" connect="1" arrows="1" fold="1" page="1" pageScale="1" pageWidth="850" pageHeight="1100" math="0" shadow="0">
      <root>
        <mxCell id="0" />
        <mxCell id="1" parent="0" />
        <mxCell id="IRAnfNPuhCU8a6vhodCF-2" value="Innovation Hub" style="ellipse;whiteSpace=wrap;html=1;aspect=fixed;fillColor=#fff2cc;strokeColor=#d6b656;" vertex="1" parent="1">
          <mxGeometry x="370" y="200" width="170" height="170" as="geometry" />
        </mxCell>
        <mxCell id="IRAnfNPuhCU8a6vhodCF-3" value="IBM Federated Id" style="rounded=0;whiteSpace=wrap;html=1;fillColor=#b1ddf0;strokeColor=#10739e;" vertex="1" parent="1">
          <mxGeometry x="160" y="70" width="120" height="60" as="geometry" />
        </mxCell>
        <mxCell id="IRAnfNPuhCU8a6vhodCF-5" value="" style="edgeStyle=segmentEdgeStyle;endArrow=classic;html=1;exitX=0;exitY=0.353;exitDx=0;exitDy=0;exitPerimeter=0;" edge="1" parent="1" source="IRAnfNPuhCU8a6vhodCF-2" target="IRAnfNPuhCU8a6vhodCF-3">
          <mxGeometry width="50" height="50" relative="1" as="geometry">
            <mxPoint x="380" y="270" as="sourcePoint" />
            <mxPoint x="430" y="220" as="targetPoint" />
          </mxGeometry>
        </mxCell>
        <mxCell id="IRAnfNPuhCU8a6vhodCF-6" value="Authenticate User" style="text;html=1;strokeColor=none;fillColor=none;align=center;verticalAlign=middle;whiteSpace=wrap;rounded=0;" vertex="1" parent="1">
          <mxGeometry x="250" y="220" width="100" height="20" as="geometry" />
        </mxCell>
      </root>
    </mxGraphModel>
  </diagram>
</mxfile>
